# xmcd
#
# Track frame offsets:
#       150
#       18545
#       58053
#
# Disc length: 1200 seconds
#
# Revision: 0
# Processed by: cddbd v1.5PL3 Copyright (c) Steve Scherf et al.
# Submitted via: WhereIsIt 3.57
#
DISCID=2104ae03
DTITLE=De Randfichten - Lebt denn dr Holzmichel noch..? Clubstepper RMXe
DYEAR=2004
DGENRE=Party
TTITLE0=De Randfichten - Lebt denn dr Holzmichel noch..? [Clubstepper RMX Shor
TTITLE0=t]
TTITLE1=De Randfichten - Lebt denn dr Holzmichel noch..? [Clubstepper RMX Maxi
TTITLE1=]
TTITLE2=Data
EXTD=
EXTT0=
EXTT1=
EXTT2=
PLAYORDER=
